HIERARCHY
ROOT Hips
{
  OFFSET 62.6361 95.056 30.4833
  CHANNELS 6 Xposition Yposition Zposition Zrotation Xrotation Yrotation
  JOINT spine
  {
    OFFSET 0 6.84637 0.3937
    CHANNELS 3 Zrotation Xrotation Yrotation
    JOINT spine1
    {
      OFFSET 0 9.49621 0
      CHANNELS 3 Zrotation Xrotation Yrotation
      JOINT spine2
      {
        OFFSET 0 9.09909 0
        CHANNELS 3 Zrotation Xrotation Yrotation
        JOINT Neck
        {
          OFFSET 0 23.3612 1.11378
          CHANNELS 3 Zrotation Xrotation Yrotation
          JOINT Head
          {
            OFFSET 0 7.05802 0
            CHANNELS 3 Zrotation Xrotation Yrotation
            End Site
            {
              OFFSET 0 17.0844 -5.63419
            }
          }
        }
        JOINT RightShoulder
        {
          OFFSET -3.83136 9.82631 -0.533491
          CHANNELS 3 Zrotation Xrotation Yrotation
          JOINT RightArm
          {
            OFFSET 0 12.8881 0
            CHANNELS 3 Zrotation Xrotation Yrotation
            JOINT RightArmRoll
            {
              OFFSET 0 6.50617 0
              CHANNELS 3 Zrotation Xrotation Yrotation
              JOINT RightForeArm
              {
                OFFSET 0 18.9501 0
                CHANNELS 3 Zrotation Xrotation Yrotation
                JOINT RightForeArmRoll
                {
                  OFFSET 0 7.30093 0
                  CHANNELS 3 Zrotation Xrotation Yrotation
                  JOINT RightHand
                  {
                    OFFSET 0 14.6514 0
                    CHANNELS 3 Zrotation Xrotation Yrotation
                    End Site
                    {
                      OFFSET 0 0 0
                    }
                  }
                }
              }
            }
          }
        }
        JOINT LeftShoulder
        {
          OFFSET 3.83136 9.82631 -0.533491
          CHANNELS 3 Zrotation Xrotation Yrotation
          JOINT LeftArm
          {
            OFFSET 0 12.8881 0
            CHANNELS 3 Zrotation Xrotation Yrotation
            JOINT LeftArmRoll
            {
              OFFSET 0 6.50617 0
              CHANNELS 3 Zrotation Xrotation Yrotation
              JOINT LeftForeArm
              {
                OFFSET 0 18.9501 0
                CHANNELS 3 Zrotation Xrotation Yrotation
                JOINT LeftForeArmRoll
                {
                  OFFSET 0 7.30092 0
                  CHANNELS 3 Zrotation Xrotation Yrotation
                  JOINT LeftHand
                  {
                    OFFSET 0 14.6514 0
                    CHANNELS 3 Zrotation Xrotation Yrotation
                    End Site
                    {
                      OFFSET 0 0 0
                    }
                  }
                }
              }
            }
          }
        }
      }
    }
  }
  JOINT RightUpLeg
  {
    OFFSET -6.06837 -1.11278 -0.933477
    CHANNELS 3 Zrotation Xrotation Yrotation
    JOINT RightUpLegRoll
    {
      OFFSET 0 17.1796 0
      CHANNELS 3 Zrotation Xrotation Yrotation
      JOINT RightLeg
      {
        OFFSET 0 -21.2743 0
        CHANNELS 3 Zrotation Xrotation Yrotation
        JOINT RightLegRoll
        {
          OFFSET 0 21.3439 0
          CHANNELS 3 Zrotation Xrotation Yrotation
          JOINT RightFoot
          {
            OFFSET 0 17.7652 0
            CHANNELS 3 Zrotation Xrotation Yrotation
            JOINT RightToeBase
            {
              OFFSET 0 14.8508 0
              CHANNELS 3 Zrotation Xrotation Yrotation
              End Site
              {
                OFFSET 0.0062947 7.19214 -0.829004
              }
            }
          }
        }
      }
    }
  }
  JOINT LeftUpLeg
  {
    OFFSET 6.06837 -1.11278 -0.933477
    CHANNELS 3 Zrotation Xrotation Yrotation
    JOINT LeftUpLegRoll
    {
      OFFSET 0 17.1797 0
      CHANNELS 3 Zrotation Xrotation Yrotation
      JOINT LeftLeg
      {
        OFFSET 0 21.2742 0
        CHANNELS 3 Zrotation Xrotation Yrotation
        JOINT LeftLegRoll
        {
          OFFSET 0 21.5412 0
          CHANNELS 3 Zrotation Xrotation Yrotation
          JOINT LeftFoot
          {
            OFFSET 0 17.5679 0
            CHANNELS 3 Zrotation Xrotation Yrotation
            JOINT LeftToeBase
            {
              OFFSET 0 14.8508 0
              CHANNELS 3 Zrotation Xrotation Yrotation
              End Site
              {
                OFFSET -0.0282102 7.19213 -0.829005
              }
            }
          }
        }
      }
    }
  }
}
MOTION
Frames: 5
Frame Time: 0.00208333
59.6909 91.5282 18.8245 1.09169 -0.151075 -2.10879 0.146309 -1.70473 -0.121377 0.289823 0.593003 -0.261554 0.293227 2.23807 -0.26647 -8.47677 24.7229 2.25437 5.20609 -11.7992 -0.115015 64.9836 3.20711 1.03698 103.692 12.8531 9.44852 -1.29102e-005 -1.21393e-006 -7.88036e-006 10.7312 20.4602 -3.20841 -5.31171e-006 -2.17435e-006 -3 8.02897 -4.95154 0.697736 -68.2782 1.9334 0.106413 -94.6283 25.2645 -46.8557 -2.62889e-006 6.88643e-006 4.69222e-006 16.3256 -0.108972 -3.5624 1.64565e-005 3.47467e-007 3.30586 -8.03145 -4.95139 -0.697578 174.849 5.2109 1.83668 180 7.0156e-015 178.98 177.331 7.87463 179.931 2.32334e-006 -3.04394e-006 0.0945188 -18.7752 68.0861 19.6217 8.13416 25.2328 -3.48674 -176.928 0.302417 0.762609 4.54188e-006 -4.6773e-006 -1.09659 -1.7064 -6.21016 0.118618 -3.26638e-006 7.70834e-007 -0.0338931 18.0234 67.0474 -18.7925 -8.12917 25.2331 3.48462 
59.6898 91.5257 18.8216 1.07506 -0.102334 -2.10579 0.149111 -1.70122 -0.119445 0.295479 0.600032 -0.257998 0.298835 2.2451 -0.263011 -8.44468 24.6357 2.24689 5.18606 -11.7743 -0.108864 64.9795 3.17433 1.0198 103.669 12.6496 9.4615 -1.29102e-005 -1.21393e-006 -7.88036e-006 10.7595 20.6864 -3.24243 -5.31171e-006 -2.17435e-006 -3 8.02897 -4.95154 0.697736 -68.2218 1.91464 0.108423 -94.769 25.0865 -46.4127 -2.62889e-006 6.88643e-006 4.69222e-006 15.8318 -0.106146 -3.42213 1.64565e-005 3.47467e-007 3.30235 -8.03145 -4.95139 -0.697578 174.874 5.26631 1.81612 180 7.0156e-015 178.981 177.338 7.88165 179.93 2.32334e-006 -3.04394e-006 0.0945547 -18.7653 68.0745 19.611 8.13416 25.2328 -3.48674 -176.907 0.364194 0.750684 4.54188e-006 -4.6773e-006 -1.09612 -1.71072 -6.22153 0.118329 -3.26638e-006 7.70834e-007 -0.0338107 18.0136 67.0345 -18.7819 -8.12917 25.2331 3.48462 
59.6898 91.5232 18.8204 1.05885 -0.0542001 -2.10281 0.151852 -1.6977 -0.117494 0.301013 0.60707 -0.254408 0.304321 2.25213 -0.259515 -8.4135 24.5488 2.24012 5.16624 -11.7491 -0.102335 64.975 3.14147 1.00262 103.648 12.4437 9.46536 -1.29102e-005 -1.21393e-006 -7.88036e-006 10.7932 20.9299 -3.27949 -5.31171e-006 -2.17435e-006 -3 8.02897 -4.95154 0.697736 -68.1653 1.89665 0.11 -94.9048 24.901 -45.9699 -2.62889e-006 6.88643e-006 4.69222e-006 15.3356 -0.103335 -3.27987 1.64565e-005 3.47467e-007 3.29892 -8.03145 -4.95139 -0.697578 174.898 5.32089 1.79638 180 7.0156e-015 178.981 177.344 7.88854 179.929 2.32334e-006 -3.04394e-006 0.0946222 -18.7557 68.0632 19.6006 8.13416 25.2328 -3.48674 -176.886 0.424226 0.739039 4.54188e-006 -4.6773e-006 -1.09568 -1.7151 -6.23097 0.117981 -3.26638e-006 7.70834e-007 -0.033688 18.0033 67.0209 -18.7708 -8.12917 25.2331 3.48462 
59.7005 91.524 18.819 1.04294 -0.00649054 -2.09985 0.154549 -1.69417 -0.115529 0.306461 0.614115 -0.250793 0.309719 2.25918 -0.255993 -8.38296 24.4621 2.23384 5.14658 -11.7237 -0.0955405 64.9704 3.10856 0.985445 103.628 12.2362 9.4629 -1.29102e-005 -1.21393e-006 -7.88036e-006 10.8309 21.1854 -3.31877 -5.31171e-006 -2.17435e-006 -3 8.02897 -4.95154 0.697736 -68.1087 1.87919 0.111273 -95.036 24.7088 -45.5279 -2.62889e-006 6.88643e-006 4.69222e-006 14.8377 -0.100533 -3.13623 1.64565e-005 3.47467e-007 3.29553 -8.03145 -4.95139 -0.697578 174.922 5.37488 1.77723 180 7.0156e-015 178.981 177.35 7.89539 179.928 2.32334e-006 -3.04394e-006 0.0947117 -18.7462 68.0521 19.5904 8.13416 25.2328 -3.48674 -176.866 0.483036 0.727591 4.54188e-006 -4.6773e-006 -1.09524 -1.71952 -6.23906 0.117592 -3.26638e-006 7.70834e-007 -0.0335372 17.9928 67.0069 -18.7594 -8.12917 25.2331 3.48462 
59.6951 91.5212 18.8154 1.02719 0.0409765 -2.0969 0.157222 -1.69065 -0.113557 0.311859 0.621165 -0.247165 0.315068 2.26623 -0.252457 -8.3528 24.3756 2.22784 5.12701 -11.6981 -0.088595 64.9656 3.07563 0.968276 103.609 12.0278 9.45688 -1.29102e-005 -1.21393e-006 -7.88036e-006 10.8712 21.4479 -3.35942 -5.31171e-006 -2.17435e-006 -3 8.02897 -4.95154 0.697736 -68.052 1.86205 0.112372 -95.1629 24.5108 -45.0872 -2.62889e-006 6.88643e-006 4.69222e-006 14.339 -0.0977366 -2.99179 1.64565e-005 3.47467e-007 3.29216 -8.03145 -4.95139 -0.697578 174.945 5.42854 1.75841 180 7.0156e-015 178.982 177.356 7.90218 179.927 2.32334e-006 -3.04394e-006 0.0948138 -18.7369 68.0411 19.5803 8.13416 25.2328 -3.48674 -176.845 0.541149 0.716255 4.54188e-006 -4.6773e-006 -1.09482 -1.72396 -6.24638 0.117179 -3.26638e-006 7.70834e-007 -0.0333703 17.9821 66.9925 -18.7477 -8.12917 25.2331 3.48462 
